<?xml version="1.0" encoding="UTF-8"?>
<svg xmlns="http://www.w3.org/2000/svg" xmlns:xlink="http://www.w3.org/1999/xlink" viewBox="0 0 905.75 270.68">
  <defs>
    <style>
      .cls-1 {
        fill: url(#linear-gradient-2);
      }

      .cls-2 {
        clip-path: url(#clippath-2);
      }

      .cls-3 {
        isolation: isolate;
      }

      .cls-4 {
        clip-path: url(#clippath-1);
      }

      .cls-5 {
        clip-path: url(#clippath-4);
      }

      .cls-6 {
        clip-path: url(#clippath);
      }

      .cls-7 {
        fill: none;
      }

      .cls-8 {
        clip-path: url(#clippath-3);
      }

      .cls-9 {
        fill: url(#linear-gradient);
      }

      .cls-10 {
        fill: #f8f8f8;
      }

      .cls-11 {
        fill: #ee3124;
      }

      .cls-12 {
        fill: #231f20;
      }

      .cls-13 {
        mix-blend-mode: darken;
      }
    </style>
    <clipPath id="clippath">
      <rect class="cls-7" x="5.68" y="11.26" width="895.03" height="253.83"/>
    </clipPath>
    <clipPath id="clippath-1">
      <path class="cls-7" d="m90.79,11.25c-1.4,0-2.78.75-3.48,2.18L5.68,181.93l69.06-40.47c6.99-4.1,15.94-2.14,20.59,4.47l13.67,19.45c7.36,10.45,19.34,16.67,32.12,16.65,32.13-.03,50.56-36.6,31.49-62.45L93.88,12.81c-.78-1.05-1.93-1.56-3.09-1.56Z"/>
    </clipPath>
    <linearGradient id="linear-gradient" x1="5.38" y1="262.16" x2="6.38" y2="262.16" gradientTransform="translate(348.1 -10865.17) rotate(-180) scale(41.81 -41.81)" gradientUnits="userSpaceOnUse">
      <stop offset="0" stop-color="#ee3124"/>
      <stop offset="1" stop-color="#9e1c0f"/>
    </linearGradient>
    <clipPath id="clippath-2">
      <path class="cls-7" d="m90.79,11.25c-1.4,0-2.78.75-3.48,2.18L5.68,181.93l101.67-59.63c6.98-4.09,17.22-2.14,21.87,4.48l13.68,19.45c7.36,10.45,19.05,16.66,31.83,16.64h.03c7.53-12.71,8.02-29.53-2.14-43.3L93.88,12.81c-.78-1.05-1.94-1.56-3.09-1.56Z"/>
    </clipPath>
    <linearGradient id="linear-gradient-2" x1="5.37" y1="262.38" x2="6.37" y2="262.38" gradientTransform="translate(-37046.63 -703.84) rotate(90) scale(141.55 -141.55)" gradientUnits="userSpaceOnUse">
      <stop offset="0" stop-color="#9e1c0f"/>
      <stop offset=".4" stop-color="#ee3124"/>
      <stop offset="1" stop-color="#ee3124"/>
    </linearGradient>
    <clipPath id="clippath-3">
      <rect class="cls-7" x="5.68" y="11.26" width="174.65" height="170.78"/>
    </clipPath>
    <clipPath id="clippath-4">
      <rect class="cls-7" x="-9.6" y="2.89" width="199.91" height="189.19"/>
    </clipPath>
  </defs>
  <g class="cls-3">
    <g id="Layer_1" data-name="Layer 1">
      <g class="cls-6">
        <path class="cls-11" d="m430.04,76.93h-30.62c1.35-11.27-.15-22.74,4.38-30.85,6.5-11.66,19.87-2.7,30.37-3.92v-16.13c-10.45,0-20.4-.82-30.16.21-12.32,1.3-18.54,7.82-20.47,20.27-1.55,10-2.17,20.14-3.19,30.18-4.77.44-9.22.85-13.29,1.23v13.57c5,.47,9.42.88,14.33,1.34v89.21h19.28v-90.4h29.37v-14.69Zm-91.49,105.09h19.28V24.48h-19.28v157.54Zm-30.27-26.65c-9.82-7.65-11.17-14.52-5.37-26.78,5.1-10.79,10.61-21.39,15.73-32.17,2.62-5.51,4.81-11.24,7.33-17.2-20.53-3.62-22.1-2.71-28.51,14.41-1.99,5.32-4.38,10.5-7.55,18.03-2.82-17.61-8.43-30.35-24.31-34.31-19-4.74-34.23,1.96-44.95,17.47-10.49,15.16-13.04,32.17-10.63,49.54,2.26,16.32,11.8,29.73,27.81,34.32,14.58,4.19,29.79,2.28,40.7-11.01,5.06-6.17,9.98-12.45,14.8-18.48,3.78,8.33,6.73,16.86,11.31,24.4,5.15,8.48,15.82,9.04,21.53,1.98,2.12-2.62,7.58-12.97,5.55-23.5-7.05,6.53-14.65,10.17-23.45,3.31m-27.56-20.82c-4.63,10.34-11.39,19.73-18.94,27.89-4.68,5.06-12.92,9.49-19.55,9.47-9.87-.02-12.64-9.68-14.37-18.23-.77-3.79-1.52-9.36-1.52-13.06-1.28-16.09,4.68-30.19,16.35-42.26,12.53-12.96,29.41-10.16,37.38,6.04,4.8,9.75,5.59,19.12.65,30.15m269.92,17.51c-7.05,6.53-14.66,10.17-23.45,3.31-9.82-7.65-11.17-14.52-5.38-26.78,5.1-10.79,10.61-21.39,15.73-32.17,2.62-5.51,4.81-11.24,7.33-17.2-20.53-3.62-22.1-2.71-28.51,14.41-1.99,5.32-4.38,10.5-7.55,18.03-2.82-17.61-8.43-30.35-24.31-34.31-19-4.74-34.23,1.96-44.95,17.47-10.49,15.16-13.04,32.17-10.63,49.54,2.26,16.32,11.8,29.73,27.81,34.32,14.58,4.19,29.79,2.28,40.7-11.01,5.06-6.17,9.98-12.45,14.8-18.48,3.78,8.33,6.73,16.86,11.31,24.4,5.15,8.48,15.82,9.04,21.53,1.98,2.12-2.62,7.58-12.97,5.55-23.5m-51.01-17.51c-4.63,10.34-11.39,19.73-18.94,27.89-4.68,5.06-12.92,9.49-19.55,9.47-9.87-.02-12.64-9.68-14.37-18.23-.77-3.79-1.52-9.36-1.52-13.06-1.28-16.09,4.68-30.19,16.35-42.26,12.53-12.96,29.41-10.16,37.38,6.04,4.8,9.75,5.59,19.12.65,30.15"/>
      </g>
      <g class="cls-4">
        <rect class="cls-9" x="-17.53" y="-14.94" width="232.42" height="223.18" transform="translate(-26.65 38.59) rotate(-19.55)"/>
      </g>
      <g class="cls-2">
        <rect class="cls-1" x="-22.01" y="-21.05" width="232.47" height="235.27" transform="translate(-34.62 136.7) rotate(-63)"/>
      </g>
      <g class="cls-13">
        <g class="cls-8">
          <path class="cls-10" d="m5.68,181.93L87.31,13.43c1.27-2.61,4.84-2.94,6.57-.62l78.73,106.76c19.07,25.85.64,62.42-31.49,62.45-12.78.01-24.76-6.2-32.12-16.65l-13.67-19.45c-4.66-6.61-13.61-8.56-20.59-4.47L5.68,181.93Z"/>
        </g>
      </g>
      <path d="m580.87,179.66h17.15v-77.24s16.84-14.31,28.05-13.96c1.69.05,6.77.49,8.31,5.84.55,1.92.85,4.22.84,8.17v77.93h17.46l-.48-79.47s1.64-1.37,4.08-3.03c2.32-1.58,5.38-3.43,7.97-4.74,5.31-2.69,11.64-4.26,11.64-4.26,0,0,6.59-1.81,10.28,1.17,3.88,3.14,3.27,9.81,3.27,9.81v80h17.18v-79.1s.02-4.93-1.22-10.55c-1.66-7.57-5.72-16.15-19.39-16.04,0,0-8.58-.59-18.58,3.63-8.12,3.42-16.58,10.14-16.58,10.14h-.17s-.94-5.73-5.94-9.79c-1.87-1.52-4.38-2.75-7.52-3.44-1.37-.3-2.83-.54-4.46-.61-.83-.04-3.74-.03-5.68.17-2.83.29-7.44,1.13-13.04,3.54-9.44,4.06-16.03,10.15-16.03,10.15l-3.45-11.17h-13.67v102.85Z"/>
      <rect x="847.84" y="28.55" width="16.96" height="151.15"/>
      <rect x="882.32" y="28.55" width="16.96" height="151.15"/>
      <path d="m839.12,151.8c2.03,10.53-3.43,20.88-5.55,23.5-5.71,7.05-16.38,6.5-21.53-1.99-4.58-7.54-7.53-16.06-11.31-24.4-4.82,6.03-9.74,12.32-14.8,18.48-10.92,13.3-26.12,15.2-40.7,11.01-16.01-4.6-25.55-18-27.81-34.32-2.41-17.37.15-34.38,10.63-49.54,10.72-15.51,25.95-22.21,44.95-17.47,15.88,3.96,21.48,16.7,24.31,34.31,3.17-7.53,5.56-12.71,7.55-18.03,6.41-17.12,7.98-18.04,28.51-14.41-2.52,5.96-4.71,11.68-7.33,17.2-5.13,10.78-10.64,21.38-15.74,32.17-5.79,12.26-4.44,19.13,5.37,26.78,8.79,6.85,16.4,3.22,23.45-3.31m-105.39-11.44c0,3.7.75,9.27,1.52,13.06,1.73,8.55,4.5,18.21,14.37,18.23,6.63.01,14.87-4.42,19.55-9.48,7.55-8.16,14.31-17.55,18.94-27.89,4.94-11.03,4.15-20.4-.65-30.15-7.97-16.2-24.85-19-37.38-6.04-11.67,12.07-17.62,26.17-16.35,42.26"/>
      <path class="cls-12" d="m615.82,254.55c-2.97,0-6.28-.22-10.76-.67v-39.34h4.48v13.73c1.91-.67,5.94-1.85,8.57-1.85,6.05,0,9.19,4.26,9.19,13.78s-3.75,14.35-11.49,14.35m1.29-24.49c-2.35,0-4.43.62-7.57,1.91v18.44c1.34.28,3.64.5,5.66.5,5.38,0,7.56-2.91,7.56-10.65,0-8.24-2.02-10.2-5.66-10.2"/>
      <polygon class="cls-12" points="637.01 265.09 632.19 265.09 636.84 253.88 626.98 227.09 631.96 227.09 639.19 248.33 647.09 227.09 651.74 227.09 637.01 265.09"/>
      <path class="cls-12" d="m678.53,253.88h-14.96v-39.34h14.01c8.69,0,9.47,7,9.47,9.64,0,4.59-1.46,7.51-3.98,9.08,3.03,1.18,5.21,3.98,5.21,9.92,0,4.43-1.4,10.7-9.75,10.7m-.9-35.3h-9.36v13.39h8.35c3.42,0,5.72-1.51,5.72-6.72s-2.07-6.67-4.71-6.67m-.39,17.43h-8.97v13.84h9.64c3.98,0,5.55-2.13,5.55-6.89,0-4.48-1.62-6.95-6.22-6.95"/>
      <path class="cls-12" d="m705.65,253.88l-.56-2.41c-2.91,1.9-6.11,2.97-8.85,2.97-4.09,0-6.61-2.41-6.61-7.79,0-7.12,3.53-9.02,13.22-9.02.73,0,1.46.06,2.24.06v-3.53c0-1.91-.84-4.09-4.76-4.09-3.14,0-6.28.95-8.8,2.02v-4.03c2.8-.95,6.61-1.62,9.19-1.62,6.16,0,8.85,2.86,8.85,8.52v18.94h-3.92Zm-.56-12.72c-.79,0-1.46-.05-2.13-.05-7.45,0-8.91,1.01-8.91,5.15,0,3.64,1.34,4.54,3.25,4.54,2.52,0,5.94-1.74,7.79-3.14v-6.5Z"/>
      <path class="cls-12" d="m730.19,253.88v-20.9c0-2.3-2.02-3.08-3.47-3.08-2.74,0-6.16,1.85-8.24,3.31v20.68h-4.48v-26.78h3.59l.78,2.63c2.13-1.51,5.6-3.31,9.08-3.31,6.11,0,7.23,3.75,7.23,6.84v20.62h-4.48Z"/>
      <polygon class="cls-12" points="755.86 253.88 743.59 239.98 743.59 253.88 739.1 253.88 739.1 214.54 743.59 214.54 743.59 237.52 754.18 227.09 759.89 227.09 748.01 238.58 761.8 253.88 755.86 253.88"/>
      <path class="cls-12" d="m795.59,253.88l-3.81-11.6h-13.95l-3.53,11.6h-4.82l13.06-39.34h4.54l13.78,39.34h-5.27Zm-11.04-33.56l-5.55,18.16h11.54l-6-18.16Z"/>
      <rect class="cls-12" x="801.69" y="214.54" width="4.48" height="39.34"/>
      <path class="cls-12" d="m819.68,217.51c-3.03,0-3.48,1.85-3.48,4.09v5.49h7.79v3.42h-7.79v23.37h-4.48v-23.37h-3.98v-3.42h3.98v-4.93c0-5.55,1.18-8.29,9.08-8.29,1.62,0,2.8.11,3.87.22v3.98c-1.46-.34-3.08-.56-4.99-.56"/>
      <path class="cls-12" d="m839.85,253.88l-.56-2.41c-2.91,1.9-6.11,2.97-8.85,2.97-4.09,0-6.61-2.41-6.61-7.79,0-7.12,3.53-9.02,13.22-9.02.73,0,1.46.06,2.24.06v-3.53c0-1.91-.84-4.09-4.76-4.09-3.14,0-6.28.95-8.8,2.02v-4.03c2.8-.95,6.61-1.62,9.19-1.62,6.16,0,8.85,2.86,8.85,8.52v18.94h-3.92Zm-.56-12.72c-.79,0-1.46-.05-2.13-.05-7.45,0-8.91,1.01-8.91,5.15,0,3.64,1.34,4.54,3.25,4.54,2.52,0,5.94-1.74,7.79-3.14v-6.5Z"/>
      <rect class="cls-12" x="848.2" y="214.54" width="4.48" height="39.34"/>
      <path class="cls-12" d="m871.68,253.88l-.56-2.41c-2.91,1.9-6.11,2.97-8.85,2.97-4.09,0-6.61-2.41-6.61-7.79,0-7.12,3.53-9.02,13.22-9.02.73,0,1.46.06,2.24.06v-3.53c0-1.91-.84-4.09-4.76-4.09-3.14,0-6.28.95-8.8,2.02v-4.03c2.8-.95,6.61-1.62,9.19-1.62,6.16,0,8.85,2.86,8.85,8.52v18.94h-3.92Zm-.56-12.72c-.79,0-1.46-.05-2.13-.05-7.45,0-8.91,1.01-8.91,5.15,0,3.64,1.34,4.54,3.25,4.54,2.52,0,5.94-1.74,7.79-3.14v-6.5Z"/>
      <path class="cls-12" d="m896.23,253.88v-20.9c0-2.3-2.02-3.08-3.47-3.08-2.74,0-6.16,1.85-8.24,3.31v20.68h-4.48v-39.34h4.48v15.13c2.13-1.51,5.55-3.25,8.97-3.25,6.11,0,7.23,3.75,7.23,6.84v20.62h-4.48Z"/>
      <rect class="cls-7" x="5.68" y="11.26" width="895.03" height="253.83"/>
      <rect class="cls-7" x="5.68" y="11.26" width="895.03" height="253.83"/>
      <g class="cls-5">
        <image width="3730" height="1058" transform="translate(5.42 11.08) scale(.24)" xlink:href="ALFA ICON.png"/>
      </g>
    </g>
  </g>
</svg>